<?xml version="1.0" encoding="UTF-8" standalone="no"?>
<!DOCTYPE svg PUBLIC "-//W3C//DTD SVG 1.1//EN"
 "http://www.w3.org/Graphics/SVG/1.1/DTD/svg11.dtd">
<!-- Generated by graphviz version 2.43.0 (0)
 -->
<!-- Title: Gb Pages: 1 -->
<svg width="216pt" height="404pt"
 viewBox="0.00 0.00 216.00 404.00" xmlns="http://www.w3.org/2000/svg" xmlns:xlink="http://www.w3.org/1999/xlink">
<g id="graph0" class="graph" transform="scale(1 1) rotate(0) translate(4 400)">
<title>Gb</title>
<polygon fill="white" stroke="transparent" points="-4,4 -4,-400 212,-400 212,4 -4,4"/>
<!-- t -->
<g id="node1" class="node">
<title>t</title>
<ellipse fill="none" stroke="black" cx="126" cy="-378" rx="27" ry="18"/>
<text text-anchor="middle" x="126" y="-374.3" font-family="Times,serif" font-size="14.00">t</text>
</g>
<!-- stdobj -->
<g id="node2" class="node">
<title>stdobj</title>
<ellipse fill="none" stroke="black" cx="126" cy="-306" rx="39.79" ry="18"/>
<text text-anchor="middle" x="126" y="-302.3" font-family="Times,serif" font-size="14.00">stdobj</text>
</g>
<!-- t&#45;&#45;stdobj -->
<g id="edge1" class="edge">
<title>t&#45;&#45;stdobj</title>
<path fill="none" stroke="black" d="M126,-359.7C126,-348.85 126,-334.92 126,-324.1"/>
</g>
<!-- c -->
<g id="node3" class="node">
<title>c</title>
<ellipse fill="none" stroke="black" cx="181" cy="-90" rx="27" ry="18"/>
<text text-anchor="middle" x="181" y="-86.3" font-family="Times,serif" font-size="14.00">c</text>
</g>
<!-- stdobj&#45;&#45;c -->
<g id="edge2" class="edge">
<title>stdobj&#45;&#45;c</title>
<path fill="none" stroke="black" d="M139.54,-288.82C147.25,-278.81 156.44,-265.35 162,-252 182.44,-202.89 183.05,-138.54 181.98,-108.22"/>
</g>
<!-- e -->
<g id="node4" class="node">
<title>e</title>
<ellipse fill="none" stroke="black" cx="27" cy="-234" rx="27" ry="18"/>
<text text-anchor="middle" x="27" y="-230.3" font-family="Times,serif" font-size="14.00">e</text>
</g>
<!-- stdobj&#45;&#45;e -->
<g id="edge3" class="edge">
<title>stdobj&#45;&#45;e</title>
<path fill="none" stroke="black" d="M105.49,-290.5C87.59,-277.84 61.89,-259.67 44.83,-247.61"/>
</g>
<!-- h -->
<g id="node5" class="node">
<title>h</title>
<ellipse fill="none" stroke="black" cx="126" cy="-234" rx="27" ry="18"/>
<text text-anchor="middle" x="126" y="-230.3" font-family="Times,serif" font-size="14.00">h</text>
</g>
<!-- stdobj&#45;&#45;h -->
<g id="edge4" class="edge">
<title>stdobj&#45;&#45;h</title>
<path fill="none" stroke="black" d="M126,-287.7C126,-276.85 126,-262.92 126,-252.1"/>
</g>
<!-- b -->
<g id="node7" class="node">
<title>b</title>
<ellipse fill="none" stroke="black" cx="117" cy="-18" rx="27" ry="18"/>
<text text-anchor="middle" x="117" y="-14.3" font-family="Times,serif" font-size="14.00">b</text>
</g>
<!-- c&#45;&#45;b -->
<g id="edge7" class="edge">
<title>c&#45;&#45;b:e</title>
<path fill="none" stroke="black" d="M179.69,-71.81C177.04,-50.8 169.05,-18 145,-18"/>
</g>
<!-- d -->
<g id="node6" class="node">
<title>d</title>
<ellipse fill="none" stroke="black" cx="95" cy="-90" rx="27" ry="18"/>
<text text-anchor="middle" x="95" y="-86.3" font-family="Times,serif" font-size="14.00">d</text>
</g>
<!-- e&#45;&#45;d -->
<g id="edge5" class="edge">
<title>e&#45;&#45;d</title>
<path fill="none" stroke="black" d="M24.12,-215.91C21.8,-197.21 20.58,-166.84 32,-144 41.21,-125.59 59.99,-111.12 74.66,-101.99"/>
</g>
<!-- f -->
<g id="node8" class="node">
<title>f</title>
<ellipse fill="none" stroke="black" cx="68" cy="-162" rx="27" ry="18"/>
<text text-anchor="middle" x="68" y="-158.3" font-family="Times,serif" font-size="14.00">f</text>
</g>
<!-- h&#45;&#45;f -->
<g id="edge8" class="edge">
<title>h&#45;&#45;f</title>
<path fill="none" stroke="black" d="M113.41,-217.81C103.69,-206.07 90.28,-189.89 80.56,-178.16"/>
</g>
<!-- g -->
<g id="node9" class="node">
<title>g</title>
<ellipse fill="none" stroke="black" cx="140" cy="-162" rx="27" ry="18"/>
<text text-anchor="middle" x="140" y="-158.3" font-family="Times,serif" font-size="14.00">g</text>
</g>
<!-- h&#45;&#45;g -->
<g id="edge9" class="edge">
<title>h&#45;&#45;g</title>
<path fill="none" stroke="black" d="M129.39,-216.05C131.56,-205.21 134.36,-191.18 136.54,-180.28"/>
</g>
<!-- d&#45;&#45;b -->
<g id="edge6" class="edge">
<title>d&#45;&#45;b</title>
<path fill="none" stroke="black" d="M100.33,-72.05C103.78,-61.05 108.27,-46.76 111.72,-35.79"/>
</g>
<!-- f&#45;&#45;d -->
<g id="edge10" class="edge">
<title>f&#45;&#45;d</title>
<path fill="none" stroke="black" d="M74.4,-144.41C78.64,-133.41 84.19,-119.03 88.46,-107.96"/>
</g>
<!-- g&#45;&#45;d -->
<g id="edge11" class="edge">
<title>g&#45;&#45;d</title>
<path fill="none" stroke="black" d="M129.79,-145.12C122.42,-133.66 112.53,-118.26 105.17,-106.82"/>
</g>
</g>
</svg>
