<?xml version="1.0" encoding="UTF-8" standalone="no"?>
<!DOCTYPE svg PUBLIC "-//W3C//DTD SVG 1.1//EN"
 "http://www.w3.org/Graphics/SVG/1.1/DTD/svg11.dtd">
<!-- Generated by graphviz version 2.43.0 (0)
 -->
<!-- Title: Ga Pages: 1 -->
<svg width="230pt" height="404pt"
 viewBox="0.00 0.00 230.00 404.00" xmlns="http://www.w3.org/2000/svg" xmlns:xlink="http://www.w3.org/1999/xlink">
<g id="graph0" class="graph" transform="scale(1 1) rotate(0) translate(4 400)">
<title>Ga</title>
<polygon fill="white" stroke="transparent" points="-4,4 -4,-400 226,-400 226,4 -4,4"/>
<!-- t -->
<g id="node1" class="node">
<title>t</title>
<ellipse fill="none" stroke="black" cx="77" cy="-378" rx="27" ry="18"/>
<text text-anchor="middle" x="77" y="-374.3" font-family="Times,serif" font-size="14.00">t</text>
</g>
<!-- stdobj -->
<g id="node2" class="node">
<title>stdobj</title>
<ellipse fill="none" stroke="black" cx="77" cy="-306" rx="39.79" ry="18"/>
<text text-anchor="middle" x="77" y="-302.3" font-family="Times,serif" font-size="14.00">stdobj</text>
</g>
<!-- t&#45;&#45;stdobj -->
<g id="edge1" class="edge">
<title>t&#45;&#45;stdobj</title>
<path fill="none" stroke="black" d="M77,-359.7C77,-348.85 77,-334.92 77,-324.1"/>
</g>
<!-- c -->
<g id="node3" class="node">
<title>c</title>
<ellipse fill="none" stroke="black" cx="27" cy="-90" rx="27" ry="18"/>
<text text-anchor="middle" x="27" y="-86.3" font-family="Times,serif" font-size="14.00">c</text>
</g>
<!-- stdobj&#45;&#45;c -->
<g id="edge2" class="edge">
<title>stdobj&#45;&#45;c</title>
<path fill="none" stroke="black" d="M62.94,-289.02C55.05,-279.08 45.85,-265.62 41,-252 23.23,-202.04 24.07,-138.09 25.72,-108.04"/>
</g>
<!-- e -->
<g id="node4" class="node">
<title>e</title>
<ellipse fill="none" stroke="black" cx="77" cy="-234" rx="27" ry="18"/>
<text text-anchor="middle" x="77" y="-230.3" font-family="Times,serif" font-size="14.00">e</text>
</g>
<!-- stdobj&#45;&#45;e -->
<g id="edge3" class="edge">
<title>stdobj&#45;&#45;e</title>
<path fill="none" stroke="black" d="M77,-287.7C77,-276.85 77,-262.92 77,-252.1"/>
</g>
<!-- h -->
<g id="node5" class="node">
<title>h</title>
<ellipse fill="none" stroke="black" cx="149" cy="-234" rx="27" ry="18"/>
<text text-anchor="middle" x="149" y="-230.3" font-family="Times,serif" font-size="14.00">h</text>
</g>
<!-- stdobj&#45;&#45;h -->
<g id="edge4" class="edge">
<title>stdobj&#45;&#45;h</title>
<path fill="none" stroke="black" d="M92.98,-289.46C105.24,-277.54 122.05,-261.2 134.05,-249.54"/>
</g>
<!-- a -->
<g id="node6" class="node">
<title>a</title>
<ellipse fill="none" stroke="black" cx="68" cy="-18" rx="27" ry="18"/>
<text text-anchor="middle" x="68" y="-14.3" font-family="Times,serif" font-size="14.00">a</text>
</g>
<!-- c&#45;&#45;a -->
<g id="edge5" class="edge">
<title>c&#45;&#45;a</title>
<path fill="none" stroke="black" d="M36.51,-72.76C43.13,-61.46 51.93,-46.44 58.54,-35.15"/>
</g>
<!-- d -->
<g id="node7" class="node">
<title>d</title>
<ellipse fill="none" stroke="black" cx="109" cy="-90" rx="27" ry="18"/>
<text text-anchor="middle" x="109" y="-86.3" font-family="Times,serif" font-size="14.00">d</text>
</g>
<!-- e&#45;&#45;d -->
<g id="edge6" class="edge">
<title>e&#45;&#45;d</title>
<path fill="none" stroke="black" d="M77.51,-215.68C78.37,-197.55 80.7,-168.39 87,-144 90.29,-131.27 96.03,-117.57 100.83,-107.3"/>
</g>
<!-- f -->
<g id="node8" class="node">
<title>f</title>
<ellipse fill="none" stroke="black" cx="123" cy="-162" rx="27" ry="18"/>
<text text-anchor="middle" x="123" y="-158.3" font-family="Times,serif" font-size="14.00">f</text>
</g>
<!-- h&#45;&#45;f -->
<g id="edge8" class="edge">
<title>h&#45;&#45;f</title>
<path fill="none" stroke="black" d="M142.84,-216.41C138.75,-205.41 133.41,-191.03 129.3,-179.96"/>
</g>
<!-- g -->
<g id="node9" class="node">
<title>g</title>
<ellipse fill="none" stroke="black" cx="195" cy="-162" rx="27" ry="18"/>
<text text-anchor="middle" x="195" y="-158.3" font-family="Times,serif" font-size="14.00">g</text>
</g>
<!-- h&#45;&#45;g -->
<g id="edge9" class="edge">
<title>h&#45;&#45;g</title>
<path fill="none" stroke="black" d="M159.44,-217.12C166.97,-205.66 177.08,-190.26 184.6,-178.82"/>
</g>
<!-- d&#45;&#45;a -->
<g id="edge7" class="edge">
<title>d&#45;&#45;a</title>
<path fill="none" stroke="black" d="M99.49,-72.76C92.87,-61.46 84.07,-46.44 77.46,-35.15"/>
</g>
<!-- f&#45;&#45;d -->
<g id="edge10" class="edge">
<title>f&#45;&#45;d</title>
<path fill="none" stroke="black" d="M119.61,-144.05C117.44,-133.21 114.64,-119.18 112.46,-108.28"/>
</g>
<!-- g&#45;&#45;d -->
<g id="edge11" class="edge">
<title>g&#45;&#45;d</title>
<path fill="none" stroke="black" d="M178.42,-147.5C163.19,-135.11 140.74,-116.84 125.53,-104.46"/>
</g>
</g>
</svg>
